<?xml version="1.0" encoding="UTF-8"?>
<svg id="Layer_1" data-name="Layer 1" xmlns="http://www.w3.org/2000/svg" viewBox="0 0 819.51 236.06">
  <defs>
    <style>
      .cls-1 {
        opacity: .5;
      }

      .cls-2 {
        fill: #0cc282;
      }
    </style>
  </defs>
  <g>
    <path class="cls-2" d="m12.27,42.67c-3.19,1.81-7.28,2.71-12.27,2.71v22.31h15.3v69.33h25.98V31.83h-22.79c-.96,5.42-3.03,9.03-6.22,10.84Z"/>
    <polygon class="cls-2" points="87.97 31.83 62.31 31.83 62.31 137.02 66.94 137.02 87.97 137.02 130.37 137.02 130.37 115.51 87.97 115.51 87.97 31.83"/>
    <path class="cls-2" d="m218.42,113.99c-.16-3.88-.24-7.68-.24-11.4v-13.23c0-8.82-1.3-16.1-3.9-21.84-2.61-5.74-6.59-9.98-11.95-12.75-5.37-2.76-12.3-4.14-20.8-4.14-5.1,0-9.88.51-14.34,1.52-4.46,1.01-8.47,2.63-12.03,4.86-3.56,2.23-6.59,5.05-9.08,8.45-2.5,3.4-4.33,7.49-5.5,12.27l22.63,6.06c.74-2.97,1.94-5.5,3.59-7.57,1.65-2.07,3.69-3.61,6.14-4.62,2.44-1.01,5.1-1.52,7.97-1.52,4.14,0,7.2.93,9.16,2.79,1.96,1.86,2.95,4.17,2.95,6.93,0,1.91-.53,3.37-1.59,4.38-1.06,1.01-2.66,1.78-4.78,2.31-2.13.53-4.94,1.11-8.45,1.75-5.95.85-11.4,1.89-16.34,3.11-4.94,1.22-9.16,2.77-12.67,4.62-3.51,1.86-6.22,4.36-8.13,7.49-1.91,3.14-2.87,7.15-2.87,12.03,0,5.21,1.04,9.56,3.11,13.07,2.07,3.51,4.94,6.16,8.61,7.97,3.67,1.81,7.78,2.71,12.35,2.71,5.1,0,10.25-.66,14.49-2.23,4.26-1.58,9.66-5.2,12.43-8.61,2.76-3.4,4.83-7.17,6.22-11.32h.02c.21,3.72.48,7.31.8,10.76.32,3.45.69,6.51,1.12,9.16h22.63c-.43-3.82-.74-7.65-.96-11.48-.21-3.82-.4-7.67-.56-11.55Zm-28.21-1.75c-1.43,1.86-3.05,3.43-4.86,4.7-1.81,1.28-3.72,2.26-5.74,2.95-2.02.69-3.93,1.04-5.74,1.04-3.19,0-5.79-.88-7.81-2.63-2.02-1.75-3.03-4.06-3.03-6.93,0-2.23.56-4.01,1.67-5.34,1.12-1.33,2.63-2.36,4.54-3.11,1.91-.74,4.06-1.35,6.45-1.83,2.39-.48,4.83-.93,7.33-1.36,2.5-.42,4.94-1.01,7.33-1.75,1.02-.32,1.95-.7,2.86-1.12l.25,8.93c-.74,2.44-1.83,4.6-3.27,6.45Z"/>
    <path class="cls-2" d="m313.01,41.24c-3.94-3.08-8.61-5.42-14.03-7.01-5.42-1.59-11.47-2.39-18.17-2.39h-43.67v105.19h25.66v-29.01h12.59c10.94,0,20.09-1.44,27.41-4.3,7.33-2.87,12.88-7.12,16.65-12.75s5.66-12.59,5.66-20.88c0-6.48-1.04-12.14-3.11-16.97-2.07-4.83-5.07-8.79-9-11.87Zm-18.81,42.63c-3.4,2.82-8.5,4.22-15.3,4.22h-16.1v-36.5h17.05c6.7,0,11.61,1.51,14.74,4.54,3.13,3.03,4.7,7.52,4.7,13.47,0,6.69-1.7,11.45-5.1,14.27Z"/>
    <rect class="cls-2" x="338.67" y="22.75" width="25.34" height="114.27"/>
    <path class="cls-2" d="m528.01,52.87v28.37c0,4.14-.35,7.89-1.04,11.24-.69,3.35-1.65,6.19-2.87,8.53-1.22,2.34-2.74,4.14-4.54,5.42-1.81,1.28-3.77,1.91-5.9,1.91-4.25,0-7.36-2.1-9.32-6.3-1.97-4.19-2.95-11.13-2.95-20.8v-28.37h-25.82v34.74c0,9.24,1.04,16.97,3.11,23.19,2.07,6.22,5.15,10.86,9.24,13.95,4.09,3.08,9.22,4.65,15.38,4.62,6.55-.03,10.86-.86,14.72-2.52,4.35-1.87,8.5-5.9,10.89-10.31,2.35-4.33,3.94-9.88,4.8-16.61l-.78,13.5c-.21,6.59-1.3,12.11-3.27,16.57-1.97,4.46-4.78,7.78-8.45,9.96-3.67,2.18-8.26,3.27-13.79,3.27-4.68,0-9.64-.85-14.9-2.55-5.26-1.7-9.75-4.3-13.47-7.81l-6.22,23.11c2.97,2.23,6.43,4.06,10.36,5.5,3.93,1.43,8.13,2.52,12.59,3.27,4.46.74,8.71,1.12,12.75,1.12,6.06,0,11.47-.72,16.26-2.15,4.78-1.44,8.98-3.56,12.59-6.37,3.61-2.82,6.61-6.3,9.01-10.44,2.39-4.14,4.2-8.95,5.42-14.42,1.22-5.47,1.84-11.5,1.84-18.09v-61.52h-25.66Z"/>
    <path class="cls-2" d="m458.92,113.99c-.16-3.88-.24-7.68-.24-11.4v-13.23c0-8.82-1.3-16.1-3.9-21.84-2.61-5.74-6.59-9.98-11.95-12.75-5.37-2.76-12.3-4.14-20.8-4.14-5.1,0-9.88.51-14.34,1.52s-8.47,2.63-12.03,4.86c-3.56,2.23-6.59,5.05-9.08,8.45-2.5,3.4-4.33,7.49-5.5,12.27l22.63,6.06c.74-2.97,1.94-5.5,3.59-7.57,1.65-2.07,3.69-3.61,6.14-4.62,2.44-1.01,5.1-1.52,7.97-1.52,4.14,0,7.2.93,9.16,2.79,1.96,1.86,2.95,4.17,2.95,6.93,0,1.91-.53,3.37-1.59,4.38-1.06,1.01-2.66,1.78-4.78,2.31-2.13.53-4.94,1.11-8.45,1.75-5.95.85-11.4,1.89-16.34,3.11-4.94,1.22-9.16,2.77-12.67,4.62-3.51,1.86-6.22,4.36-8.13,7.49-1.91,3.14-2.87,7.15-2.87,12.03,0,5.21,1.04,9.56,3.11,13.07,2.07,3.51,4.94,6.16,8.61,7.97,3.67,1.81,7.78,2.71,12.35,2.71,5.1,0,10.25-.66,14.49-2.23,4.26-1.58,9.66-5.2,12.43-8.61,2.76-3.4,4.83-7.17,6.22-11.32h.02c.21,3.72.48,7.31.8,10.76.32,3.45.69,6.51,1.12,9.16h22.63c-.43-3.82-.74-7.65-.96-11.48-.21-3.82-.4-7.67-.56-11.55Zm-28.21-1.75c-1.43,1.86-3.05,3.43-4.86,4.7-1.81,1.28-3.72,2.26-5.74,2.95-2.02.69-3.93,1.04-5.74,1.04-3.19,0-5.79-.88-7.81-2.63-2.02-1.75-3.03-4.06-3.03-6.93,0-2.23.56-4.01,1.67-5.34,1.12-1.33,2.63-2.36,4.54-3.11,1.91-.74,4.06-1.35,6.45-1.83,2.39-.48,4.83-.93,7.33-1.36,2.5-.42,4.94-1.01,7.33-1.75,1.02-.32,1.95-.7,2.86-1.12l.25,8.93c-.74,2.44-1.83,4.6-3.27,6.45Z"/>
  </g>
  <g>
    <g class="cls-1">
      <path class="cls-2" d="m780.89,51.78h0c-7.88-3.32-16.6,2.47-16.6,11.02v6.53s11.6,4.84,11.6,4.84c2.38.99,5-.75,5-3.33v-19.06Z"/>
      <path class="cls-2" d="m750.8,39.07h0c-7.88-3.32-16.6,2.47-16.6,11.02v6.53s11.6,4.84,11.6,4.84c2.38.99,5-.75,5-3.33v-19.06Z"/>
      <path class="cls-2" d="m720.7,26.36h0c-7.88-3.32-16.6,2.47-16.6,11.02v6.53s11.6,4.84,11.6,4.84c2.38.99,5-.75,5-3.33v-19.06Z"/>
      <path class="cls-2" d="m690.6,13.66h0c-7.88-3.32-16.6,2.47-16.6,11.02v6.53s11.6,4.84,11.6,4.84c2.38.99,5-.75,5-3.33V13.66Z"/>
      <path class="cls-2" d="m660.5.95h0c-7.88-3.32-16.6,2.47-16.6,11.02v6.53s11.6,4.84,11.6,4.84c2.38.99,5-.75,5-3.33V.95Z"/>
    </g>
    <path class="cls-2" d="m602.62,59.07c3.27-1.74,6.32-3.83,9.11-6.22.87-.75,2.11-.91,3.17-.47l199.61,83.33c2.38.99,5-.75,5-3.33v-14.74c0-1.22-.73-2.32-1.85-2.79l-192.14-80.83-18.31-7.7c-1.38-.58-3.15-.01-3.86,1.31-4.29,7.92-12.31,13.53-21.7,14.46-1.58.16-2.8,1.43-2.8,3.02v19.9s0,45.93,0,45.93c0,2.14,1.53,3.97,3.64,4.35,4.79.88,9.35,2.16,13.67,3.72,2.35.85,4.82-.9,4.82-3.4v-53.84c0-1.14.65-2.16,1.65-2.7Z"/>
    <path class="cls-2" d="m759.19,236.06c33.6-.44,60.32-28.44,60.32-62.04v-24.74c0-1.22-.73-2.32-1.86-2.79l-15.8-6.6c-2.38-.99-5,.75-5,3.33v29.83c0,21.57-17.65,39.64-39.22,39.22-20.9-.4-37.72-17.47-37.72-38.46v-19.37c0-2.2-1.95-3.89-4.12-3.57l-70.47,10.13c-1.03.15-2.06-.24-2.73-1.03-4.96-5.83-27.19-29.98-59.47-36.17-2.22-.42-4.27,1.3-4.27,3.56v17.84c0,1.46,1.04,2.73,2.48,2.97,29.9,5.17,46.4,28.1,50.46,34.48.64,1.01,1.81,1.54,2.99,1.37l62.47-9.08c0,34.03,27.81,61.57,61.95,61.13Z"/>
    <path class="cls-2" d="m805.99,97.9c2.38.99,5-.75,5-3.33v-44.95c-7.88-3.32-16.6,2.47-16.6,11.02v10.18L639.7,6.24c-8.89-3.75-18.73,2.78-18.73,12.43,0,1.5.9,2.86,2.29,3.44l182.73,75.79Z"/>
  </g>
</svg>