<?xml version="1.0" encoding="UTF-8"?>
<svg id="Layer_1" data-name="Layer 1" xmlns="http://www.w3.org/2000/svg" viewBox="0 0 232.15 227.71">
  <defs>
    <style>
      .cls-1 {
        opacity: .5;
      }

      .cls-2 {
        fill: #0cc282;
      }
    </style>
  </defs>
  <g class="cls-1">
    <path class="cls-2" d="m194.9,49.95h0c-7.6-3.2-16.01,2.38-16.01,10.63v6.3s11.19,4.67,11.19,4.67c2.29.96,4.82-.73,4.82-3.21v-18.39Z"/>
    <path class="cls-2" d="m165.87,37.69h0c-7.6-3.2-16.01,2.38-16.01,10.63v6.3s11.19,4.67,11.19,4.67c2.29.96,4.82-.73,4.82-3.21v-18.39Z"/>
    <path class="cls-2" d="m136.84,25.43h0c-7.6-3.2-16.01,2.38-16.01,10.63v6.3s11.19,4.67,11.19,4.67c2.29.96,4.82-.73,4.82-3.21v-18.39Z"/>
    <path class="cls-2" d="m107.8,13.17h0c-7.6-3.2-16.01,2.38-16.01,10.63v6.3s11.19,4.67,11.19,4.67c2.29.96,4.82-.73,4.82-3.21V13.17Z"/>
    <path class="cls-2" d="m78.77.91h0c-7.6-3.2-16.01,2.38-16.01,10.63v6.3s11.19,4.67,11.19,4.67c2.29.96,4.82-.73,4.82-3.21V.91Z"/>
  </g>
  <path class="cls-2" d="m22.94,56.98c3.15-1.68,6.1-3.7,8.79-6,.84-.72,2.03-.88,3.06-.45l192.54,80.38c2.29.96,4.82-.73,4.82-3.21v-14.22c0-1.18-.7-2.24-1.79-2.69L45.02,32.8l-17.67-7.43c-1.33-.56-3.04-.01-3.73,1.26-4.14,7.64-11.87,13.05-20.93,13.95C1.18,40.73,0,41.97,0,43.49v19.2s0,44.3,0,44.3c0,2.07,1.48,3.83,3.51,4.2,4.62.85,9.02,2.09,13.19,3.59,2.26.82,4.65-.87,4.65-3.28v-51.93c0-1.1.62-2.08,1.59-2.6Z"/>
  <path class="cls-2" d="m173.96,227.7c32.41-.42,58.19-27.44,58.19-59.85v-23.87c0-1.18-.71-2.24-1.8-2.7l-15.24-6.36c-2.29-.96-4.82.73-4.82,3.21v28.77c0,20.81-17.03,38.23-37.83,37.84-20.16-.39-36.39-16.85-36.39-37.1v-18.68c0-2.12-1.88-3.75-3.98-3.45l-67.98,9.77c-.99.14-1.98-.23-2.64-.99-4.79-5.62-26.23-28.92-57.37-34.89C1.98,119,0,120.67,0,122.84v17.21c0,1.41,1,2.63,2.39,2.87,28.84,4.99,44.76,27.1,48.68,33.26.62.97,1.74,1.48,2.88,1.32l60.26-8.76c0,32.83,26.83,59.39,59.76,58.97Z"/>
  <path class="cls-2" d="m219.11,94.43c2.29.96,4.82-.73,4.82-3.21v-43.36c-7.6-3.2-16.01,2.38-16.01,10.63v9.82L58.71,6.02c-8.58-3.62-18.07,2.68-18.07,11.99,0,1.45.87,2.76,2.21,3.32l176.27,73.11Z"/>
</svg>