<?xml version="1.0" encoding="UTF-8"?>
<svg id="Layer_1" data-name="Layer 1" xmlns="http://www.w3.org/2000/svg" viewBox="0 0 207.98 207.98">
  <defs>
    <style>
      .cls-1 {
        opacity: .5;
      }

      .cls-2 {
        fill: #0cc282;
      }
    </style>
  </defs>
  <g class="cls-1">
    <path class="cls-2" d="m50.47,37.98h0c-2.68,6.37,2,13.41,8.91,13.41h5.28s3.91-9.37,3.91-9.37c.8-1.92-.61-4.04-2.69-4.04h-15.4Z"/>
    <path class="cls-2" d="m40.21,62.29h0c-2.68,6.37,2,13.41,8.91,13.41h5.28s3.91-9.37,3.91-9.37c.8-1.92-.61-4.04-2.69-4.04h-15.4Z"/>
    <path class="cls-2" d="m29.94,86.61h0c-2.68,6.37,2,13.41,8.91,13.41h5.28s3.91-9.37,3.91-9.37c.8-1.92-.61-4.04-2.69-4.04h-15.4Z"/>
    <path class="cls-2" d="m19.68,110.92h0c-2.68,6.37,2,13.41,8.91,13.41h5.28s3.91-9.37,3.91-9.37c.8-1.92-.61-4.04-2.69-4.04h-15.4Z"/>
    <path class="cls-2" d="m9.41,135.23h0c-2.68,6.37,2,13.41,8.91,13.41h5.28s3.91-9.37,3.91-9.37c.8-1.92-.61-4.04-2.69-4.04h-15.4Z"/>
  </g>
  <path class="cls-2" d="m56.36,181.98c-1.41-2.64-3.1-5.11-5.03-7.36-.6-.71-.74-1.7-.38-2.56L118.26,10.83c.8-1.92-.61-4.04-2.69-4.04h-11.91c-.98,0-1.87.59-2.25,1.5L36.12,163.49l-6.22,14.79c-.47,1.11,0,2.54,1.05,3.12,6.4,3.46,10.93,9.94,11.68,17.53.13,1.27,1.16,2.26,2.44,2.26h16.08s37.1,0,37.1,0c1.73,0,3.2-1.24,3.52-2.94.71-3.87,1.75-7.55,3.01-11.05.68-1.9-.73-3.89-2.74-3.89h-43.49c-.92,0-1.75-.52-2.18-1.33Z"/>
  <path class="cls-2" d="m199.33,55.51c-.35-27.14-22.97-48.73-50.12-48.73h-19.99c-.99,0-1.88.59-2.26,1.5l-5.33,12.76c-.8,1.92.61,4.04,2.69,4.04h24.1c17.42,0,32.02,14.26,31.68,31.68s-14.11,30.47-31.07,30.47h-15.64c-1.78,0-3.14,1.57-2.89,3.33l8.18,56.92c.12.83-.19,1.66-.83,2.21-4.71,4.01-24.22,21.96-29.21,48.04-.34,1.79,1.05,3.45,2.87,3.45h14.41c1.18,0,2.2-.84,2.4-2,4.18-24.15,22.7-37.48,27.85-40.76.81-.52,1.24-1.46,1.1-2.41l-7.33-50.46c27.49,0,49.74-22.46,49.38-50.04Z"/>
  <path class="cls-2" d="m87.73,17.71c.8-1.92-.61-4.04-2.69-4.04h-36.31c-2.68,6.37,2,13.41,8.91,13.41h8.22L13.69,152.03c-3.03,7.18,2.24,15.13,10.04,15.13,1.21,0,2.31-.73,2.78-1.85L87.73,17.71Z"/>
</svg>